<svg width="44" height="44" viewBox="0 0 44 44" fill="none" xmlns="http://www.w3.org/2000/svg">
<path d="M22.0502 38.0405L19.4441 35.704C16.4187 32.9781 13.9174 30.6266 11.9404 28.6496C9.96336 26.6726 8.39072 24.8977 7.22248 23.3251C6.05424 21.7525 5.23796 20.3071 4.77366 18.9891C4.30936 17.6711 4.07721 16.3231 4.07721 14.9452C4.07721 12.1294 5.02079 9.77796 6.90795 7.8908C8.79512 6.00364 11.1466 5.06006 13.9623 5.06006C15.52 5.06006 17.0028 5.38956 18.4107 6.04857C19.8185 6.70758 21.0317 7.63618 22.0502 8.83438C23.0687 7.63618 24.2818 6.70758 25.6897 6.04857C27.0976 5.38956 28.5804 5.06006 30.138 5.06006C32.9538 5.06006 35.3053 6.00364 37.1924 7.8908C39.0796 9.77796 40.0232 12.1294 40.0232 14.9452C40.0232 16.3231 39.791 17.6711 39.3267 18.9891C38.8624 20.3071 38.0461 21.7525 36.8779 23.3251C35.7096 24.8977 34.137 26.6726 32.16 28.6496C30.183 30.6266 27.6817 32.9781 24.6563 35.704L22.0502 38.0405ZM22.0502 33.1878C24.9259 30.6116 27.2923 28.4025 29.1495 26.5602C31.0067 24.718 32.4745 23.1154 33.5529 21.7525C34.6313 20.3895 35.3801 19.1763 35.7995 18.1129C36.2189 17.0495 36.4286 15.9936 36.4286 14.9452C36.4286 13.1479 35.8295 11.6501 34.6313 10.452C33.4331 9.25375 31.9353 8.65465 30.138 8.65465C28.7301 8.65465 27.4271 9.05156 26.2289 9.84536C25.0307 10.6392 24.2069 11.6501 23.7576 12.8783H20.3428C19.8934 11.6501 19.0697 10.6392 17.8715 9.84536C16.6733 9.05156 15.3702 8.65465 13.9623 8.65465C12.165 8.65465 10.6673 9.25375 9.4691 10.452C8.2709 11.6501 7.6718 13.1479 7.6718 14.9452C7.6718 15.9936 7.88149 17.0495 8.30086 18.1129C8.72023 19.1763 9.4691 20.3895 10.5475 21.7525C11.6259 23.1154 13.0937 24.718 14.9509 26.5602C16.8081 28.4025 19.1745 30.6116 22.0502 33.1878Z" fill="#E3E3E3"/>
</svg>
