<svg width="44" height="44" viewBox="0 0 44 44" fill="none" xmlns="http://www.w3.org/2000/svg">
<path d="M35.7368 38.0408L24.4138 26.7178C23.5152 27.4368 22.4817 28.0059 21.3135 28.4253C20.1453 28.8446 18.9021 29.0543 17.5841 29.0543C14.319 29.0543 11.5557 27.9235 9.29407 25.6619C7.03247 23.4003 5.90167 20.637 5.90167 17.3719C5.90167 14.1068 7.03247 11.3435 9.29407 9.08185C11.5557 6.82025 14.319 5.68945 17.5841 5.68945C20.8492 5.68945 23.6125 6.82025 25.8741 9.08185C28.1357 11.3435 29.2665 14.1068 29.2665 17.3719C29.2665 18.6899 29.0569 19.933 28.6375 21.1013C28.2181 22.2695 27.649 23.303 26.9301 24.2016L38.253 35.5246L35.7368 38.0408ZM17.5841 25.4597C19.8307 25.4597 21.7404 24.6734 23.313 23.1008C24.8856 21.5281 25.6719 19.6185 25.6719 17.3719C25.6719 15.1253 24.8856 13.2156 23.313 11.643C21.7404 10.0704 19.8307 9.28405 17.5841 9.28405C15.3375 9.28405 13.4279 10.0704 11.8552 11.643C10.2826 13.2156 9.49627 15.1253 9.49627 17.3719C9.49627 19.6185 10.2826 21.5281 11.8552 23.1008C13.4279 24.6734 15.3375 25.4597 17.5841 25.4597Z" fill="#E3E3E3"/>
</svg>
